<?xml version="1.0" encoding="UTF-8" standalone="no"?>
<!-- Created with Inkscape (http://www.inkscape.org/) -->

<svg
   width="210mm"
   height="297mm"
   viewBox="0 0 210 297"
   version="1.1"
   id="svg1"
   xml:space="preserve"
   inkscape:version="1.4 (86a8ad7, 2024-10-11)"
   sodipodi:docname="logo.svg"
   inkscape:export-filename="logo_white_trans.png"
   inkscape:export-xdpi="300"
   inkscape:export-ydpi="300"
   xmlns:inkscape="http://www.inkscape.org/namespaces/inkscape"
   xmlns:sodipodi="http://sodipodi.sourceforge.net/DTD/sodipodi-0.dtd"
   xmlns:xlink="http://www.w3.org/1999/xlink"
   xmlns="http://www.w3.org/2000/svg"
   xmlns:svg="http://www.w3.org/2000/svg"><sodipodi:namedview
     id="namedview1"
     pagecolor="#ffffff"
     bordercolor="#666666"
     borderopacity="1.0"
     inkscape:showpageshadow="2"
     inkscape:pageopacity="0.0"
     inkscape:pagecheckerboard="0"
     inkscape:deskcolor="#d1d1d1"
     inkscape:document-units="mm"
     inkscape:zoom="5.6568542"
     inkscape:cx="140.71425"
     inkscape:cy="110.22027"
     inkscape:window-width="2560"
     inkscape:window-height="1369"
     inkscape:window-x="-8"
     inkscape:window-y="-8"
     inkscape:window-maximized="1"
     inkscape:current-layer="svg1"
     inkscape:export-bgcolor="#ffffff00" /><defs
     id="defs1"><linearGradient
       id="linearGradient66"
       inkscape:collect="always"><stop
         style="stop-color:#1b98a5;stop-opacity:1;"
         offset="0"
         id="stop66" /><stop
         style="stop-color:#1ce6cb;stop-opacity:1;"
         offset="1"
         id="stop67" /></linearGradient><linearGradient
       id="linearGradient49"
       inkscape:collect="always"><stop
         style="stop-color:#050a56;stop-opacity:1;"
         offset="0"
         id="stop49" /><stop
         style="stop-color:#095092;stop-opacity:1;"
         offset="1"
         id="stop50" /></linearGradient><linearGradient
       inkscape:collect="always"
       xlink:href="#linearGradient49"
       id="linearGradient50"
       x1="62.530754"
       y1="99.771858"
       x2="62.530754"
       y2="45.709042"
       gradientUnits="userSpaceOnUse"
       gradientTransform="matrix(0.29887995,0,0,0.29887995,5.4081496,-0.91563362)" /><linearGradient
       inkscape:collect="always"
       xlink:href="#linearGradient66"
       id="linearGradient67"
       x1="62.490337"
       y1="99.598602"
       x2="62.490337"
       y2="45.881207"
       gradientUnits="userSpaceOnUse"
       gradientTransform="matrix(0.29887995,0,0,-0.29649073,5.4081496,63.528234)" /><mask
       maskUnits="userSpaceOnUse"
       id="mask100"><path
         id="path100"
         style="display:inline;opacity:1;fill:#058697;fill-opacity:1;stroke:#000000;stroke-width:0.263523px;stroke-linecap:butt;stroke-linejoin:miter;stroke-opacity:1"
         d="m 134.37148,101.29911 -36.633454,0.24656 c 0,0 -25.008442,34.32477 -26.864536,37.24339 -0.705157,1.10883 -1.01158,2.79395 -0.589657,4.65935 -0.567794,-1.09077 -2.333793,-4.736 -2.292432,-8.11257 0.04885,-3.98741 0,-33.99579 0,-33.99579 H 38.684636 v 38.51758 c 0,0 0.390857,12.62019 16.167643,19.9373 15.776789,7.31711 30.821028,-0.45218 30.821028,-0.45218 0,0 4.761568,-2.61799 6.789208,-4.27523 1.745673,-1.42679 4.542783,-4.80976 4.542783,-4.80976 l 18.756312,-25.11642 20.07532,25.97984 c 0,0 8.69392,12.2088 25.88719,11.87994 17.19328,-0.32885 31.16313,-11.83914 31.35851,-22.65037 0.19538,-10.81124 0,-38.80508 0,-38.80508 h -29.11152 v 35.31092 c 0,0 -1.04384,5.45223 -2.54883,6.50805 -0.002,0.001 -0.01,0.005 -0.0124,0.006 0.36533,-1.85922 0.0734,-3.39969 -0.22273,-4.04772 -0.73268,-1.60319 -26.81573,-38.024 -26.81573,-38.024 z" /></mask><linearGradient
       inkscape:collect="always"
       xlink:href="#linearGradient49"
       id="linearGradient50-4"
       x1="62.530754"
       y1="99.771858"
       x2="62.530754"
       y2="45.709042"
       gradientUnits="userSpaceOnUse" /><linearGradient
       inkscape:collect="always"
       xlink:href="#linearGradient49"
       id="linearGradient54-2"
       x1="151.48639"
       y1="99.156059"
       x2="151.48639"
       y2="46.017723"
       gradientUnits="userSpaceOnUse" /><linearGradient
       inkscape:collect="always"
       xlink:href="#linearGradient66"
       id="linearGradient67-6"
       x1="62.490337"
       y1="99.598602"
       x2="62.490337"
       y2="45.881207"
       gradientUnits="userSpaceOnUse" /><mask
       maskUnits="userSpaceOnUse"
       id="mask100-5"><path
         id="path100-1"
         style="display:inline;opacity:1;fill:#058697;fill-opacity:1;stroke:#000000;stroke-width:0.263523px;stroke-linecap:butt;stroke-linejoin:miter;stroke-opacity:1"
         d="m 134.37148,101.29911 -36.633454,0.24656 c 0,0 -25.008442,34.32477 -26.864536,37.24339 -0.705157,1.10883 -1.01158,2.79395 -0.589657,4.65935 -0.567794,-1.09077 -2.333793,-4.736 -2.292432,-8.11257 0.04885,-3.98741 0,-33.99579 0,-33.99579 H 38.684636 v 38.51758 c 0,0 0.390857,12.62019 16.167643,19.9373 15.776789,7.31711 30.821028,-0.45218 30.821028,-0.45218 0,0 4.761568,-2.61799 6.789208,-4.27523 1.745673,-1.42679 4.542783,-4.80976 4.542783,-4.80976 l 18.756312,-25.11642 20.07532,25.97984 c 0,0 8.69392,12.2088 25.88719,11.87994 17.19328,-0.32885 31.16313,-11.83914 31.35851,-22.65037 0.19538,-10.81124 0,-38.80508 0,-38.80508 h -29.11152 v 35.31092 c 0,0 -1.04384,5.45223 -2.54883,6.50805 -0.002,0.001 -0.01,0.005 -0.0124,0.006 0.36533,-1.85922 0.0734,-3.39969 -0.22273,-4.04772 -0.73268,-1.60319 -26.81573,-38.024 -26.81573,-38.024 z" /></mask><mask
       maskUnits="userSpaceOnUse"
       id="mask22"><path
         id="path22"
         style="display:inline;opacity:1;fill:#058697;fill-opacity:1;stroke:#000000;stroke-width:0.263523px;stroke-linecap:butt;stroke-linejoin:miter;stroke-opacity:1"
         d="m 134.37148,101.29911 -36.633454,0.24656 c 0,0 -25.008442,34.32477 -26.864536,37.24339 -0.705157,1.10883 -1.01158,2.79395 -0.589657,4.65935 -0.567794,-1.09077 -2.333793,-4.736 -2.292432,-8.11257 0.04885,-3.98741 0,-33.99579 0,-33.99579 H 38.684636 v 38.51758 c 0,0 0.390857,12.62019 16.167643,19.9373 15.776789,7.31711 30.821028,-0.45218 30.821028,-0.45218 0,0 4.761568,-2.61799 6.789208,-4.27523 1.745673,-1.42679 4.542783,-4.80976 4.542783,-4.80976 l 18.756312,-25.11642 20.07532,25.97984 c 0,0 8.69392,12.2088 25.88719,11.87994 17.19328,-0.32885 31.16313,-11.83914 31.35851,-22.65037 0.19538,-10.81124 0,-38.80508 0,-38.80508 h -29.11152 v 35.31092 c 0,0 -1.04384,5.45223 -2.54883,6.50805 -0.002,0.001 -0.01,0.005 -0.0124,0.006 0.36533,-1.85922 0.0734,-3.39969 -0.22273,-4.04772 -0.73268,-1.60319 -26.81573,-38.024 -26.81573,-38.024 z" /></mask><mask
       maskUnits="userSpaceOnUse"
       id="mask100-0"><path
         id="path100-8"
         style="display:inline;opacity:1;fill:#058697;fill-opacity:1;stroke:#000000;stroke-width:0.263523px;stroke-linecap:butt;stroke-linejoin:miter;stroke-opacity:1"
         d="m 134.37148,101.29911 -36.633454,0.24656 c 0,0 -25.008442,34.32477 -26.864536,37.24339 -0.705157,1.10883 -1.01158,2.79395 -0.589657,4.65935 -0.567794,-1.09077 -2.333793,-4.736 -2.292432,-8.11257 0.04885,-3.98741 0,-33.99579 0,-33.99579 H 38.684636 v 38.51758 c 0,0 0.390857,12.62019 16.167643,19.9373 15.776789,7.31711 30.821028,-0.45218 30.821028,-0.45218 0,0 4.761568,-2.61799 6.789208,-4.27523 1.745673,-1.42679 4.542783,-4.80976 4.542783,-4.80976 l 18.756312,-25.11642 20.07532,25.97984 c 0,0 8.69392,12.2088 25.88719,11.87994 17.19328,-0.32885 31.16313,-11.83914 31.35851,-22.65037 0.19538,-10.81124 0,-38.80508 0,-38.80508 h -29.11152 v 35.31092 c 0,0 -1.04384,5.45223 -2.54883,6.50805 -0.002,0.001 -0.01,0.005 -0.0124,0.006 0.36533,-1.85922 0.0734,-3.39969 -0.22273,-4.04772 -0.73268,-1.60319 -26.81573,-38.024 -26.81573,-38.024 z" /></mask><mask
       maskUnits="userSpaceOnUse"
       id="mask12"><path
         id="path12"
         style="display:inline;opacity:1;fill:#058697;fill-opacity:1;stroke:#000000;stroke-width:0.263523px;stroke-linecap:butt;stroke-linejoin:miter;stroke-opacity:1"
         d="m 134.37148,101.29911 -36.633454,0.24656 c 0,0 -25.008442,34.32477 -26.864536,37.24339 -0.705157,1.10883 -1.01158,2.79395 -0.589657,4.65935 -0.567794,-1.09077 -2.333793,-4.736 -2.292432,-8.11257 0.04885,-3.98741 0,-33.99579 0,-33.99579 H 38.684636 v 38.51758 c 0,0 0.390857,12.62019 16.167643,19.9373 15.776789,7.31711 30.821028,-0.45218 30.821028,-0.45218 0,0 4.761568,-2.61799 6.789208,-4.27523 1.745673,-1.42679 4.542783,-4.80976 4.542783,-4.80976 l 18.756312,-25.11642 20.07532,25.97984 c 0,0 8.69392,12.2088 25.88719,11.87994 17.19328,-0.32885 31.16313,-11.83914 31.35851,-22.65037 0.19538,-10.81124 0,-38.80508 0,-38.80508 h -29.11152 v 35.31092 c 0,0 -1.04384,5.45223 -2.54883,6.50805 -0.002,0.001 -0.01,0.005 -0.0124,0.006 0.36533,-1.85922 0.0734,-3.39969 -0.22273,-4.04772 -0.73268,-1.60319 -26.81573,-38.024 -26.81573,-38.024 z" /></mask><mask
       maskUnits="userSpaceOnUse"
       id="mask100-7"><path
         id="path100-6"
         style="display:inline;opacity:1;fill:#058697;fill-opacity:1;stroke:#000000;stroke-width:0.263523px;stroke-linecap:butt;stroke-linejoin:miter;stroke-opacity:1"
         d="m 134.37148,101.29911 -36.633454,0.24656 c 0,0 -25.008442,34.32477 -26.864536,37.24339 -0.705157,1.10883 -1.01158,2.79395 -0.589657,4.65935 -0.567794,-1.09077 -2.333793,-4.736 -2.292432,-8.11257 0.04885,-3.98741 0,-33.99579 0,-33.99579 H 38.684636 v 38.51758 c 0,0 0.390857,12.62019 16.167643,19.9373 15.776789,7.31711 30.821028,-0.45218 30.821028,-0.45218 0,0 4.761568,-2.61799 6.789208,-4.27523 1.745673,-1.42679 4.542783,-4.80976 4.542783,-4.80976 l 18.756312,-25.11642 20.07532,25.97984 c 0,0 8.69392,12.2088 25.88719,11.87994 17.19328,-0.32885 31.16313,-11.83914 31.35851,-22.65037 0.19538,-10.81124 0,-38.80508 0,-38.80508 h -29.11152 v 35.31092 c 0,0 -1.04384,5.45223 -2.54883,6.50805 -0.002,0.001 -0.01,0.005 -0.0124,0.006 0.36533,-1.85922 0.0734,-3.39969 -0.22273,-4.04772 -0.73268,-1.60319 -26.81573,-38.024 -26.81573,-38.024 z" /></mask><mask
       maskUnits="userSpaceOnUse"
       id="mask12-9"><path
         id="path12-3"
         style="display:inline;opacity:1;fill:#058697;fill-opacity:1;stroke:#000000;stroke-width:0.263523px;stroke-linecap:butt;stroke-linejoin:miter;stroke-opacity:1"
         d="m 134.37148,101.29911 -36.633454,0.24656 c 0,0 -25.008442,34.32477 -26.864536,37.24339 -0.705157,1.10883 -1.01158,2.79395 -0.589657,4.65935 -0.567794,-1.09077 -2.333793,-4.736 -2.292432,-8.11257 0.04885,-3.98741 0,-33.99579 0,-33.99579 H 38.684636 v 38.51758 c 0,0 0.390857,12.62019 16.167643,19.9373 15.776789,7.31711 30.821028,-0.45218 30.821028,-0.45218 0,0 4.761568,-2.61799 6.789208,-4.27523 1.745673,-1.42679 4.542783,-4.80976 4.542783,-4.80976 l 18.756312,-25.11642 20.07532,25.97984 c 0,0 8.69392,12.2088 25.88719,11.87994 17.19328,-0.32885 31.16313,-11.83914 31.35851,-22.65037 0.19538,-10.81124 0,-38.80508 0,-38.80508 h -29.11152 v 35.31092 c 0,0 -1.04384,5.45223 -2.54883,6.50805 -0.002,0.001 -0.01,0.005 -0.0124,0.006 0.36533,-1.85922 0.0734,-3.39969 -0.22273,-4.04772 -0.73268,-1.60319 -26.81573,-38.024 -26.81573,-38.024 z" /></mask></defs><g
     inkscape:groupmode="layer"
     id="layer4"
     inkscape:label="stars"><path
       id="path44"
       style="fill:url(#linearGradient50);stroke:none;stroke-width:0.0790785px;stroke-linecap:butt;stroke-linejoin:miter"
       d="M 49.929252 10.729061 C 45.196105 10.621489 42.802555 14.615129 42.802555 14.615129 L 37.276278 23.113318 L 32.112769 14.897282 C 32.112769 14.897282 31.342767 13.79096 30.862199 13.324251 C 30.304009 12.782158 28.993062 11.925887 28.993062 11.925887 C 28.993062 11.925887 24.85151 9.3841099 20.508309 11.777576 C 16.165108 14.171043 16.057935 18.299141 16.057935 18.299141 L 16.057935 30.898889 L 24.125659 30.898889 C 24.125659 30.898889 24.139109 21.082942 24.125659 19.778638 C 24.119018 19.134467 24.289882 18.442213 24.46414 17.905367 L 24.918892 18.648991 C 25.484037 19.572648 32.314307 30.831193 32.314307 30.831193 L 42.399479 30.912325 C 42.399479 30.912325 49.492645 18.956275 49.781458 18.474325 L 50.187634 17.79633 C 50.408759 18.436317 50.547819 19.280994 50.547819 19.280994 L 50.547819 30.831193 L 58.5618 30.831193 C 58.5618 30.831193 58.61559 21.674324 58.5618 18.137911 C 58.508014 14.601497 54.662398 10.836632 49.929252 10.729061 z " /><path
       id="path44-8"
       style="fill:url(#linearGradient67);stroke:none;stroke-width:0.0787618px;stroke-linecap:butt;stroke-linejoin:miter"
       d="M 42.399479 31.955155 L 32.314307 32.034737 C 32.314307 32.034737 25.484169 43.204619 24.918892 44.120304 L 24.46414 44.857727 C 24.2899 44.325194 24.119019 43.638403 24.125659 42.999443 C 24.139109 41.705565 24.125659 31.968075 24.125659 31.968075 L 16.057935 31.968075 L 16.057935 44.467053 C 16.057935 44.467053 16.165108 48.562093 20.508309 50.936426 C 24.85151 53.310759 28.993062 50.789665 28.993062 50.789665 C 28.993062 50.789665 30.304009 49.939912 30.862199 49.402153 C 31.342767 48.939174 32.112769 47.841524 32.112769 47.841524 L 37.276278 39.691634 L 42.802555 48.121611 C 42.802555 48.121611 45.196105 52.083384 49.929252 51.976672 C 54.662398 51.869961 58.508014 48.134877 58.5618 44.626733 C 58.61559 41.118589 58.5618 32.034737 58.5618 32.034737 L 50.547819 32.034737 L 50.547819 43.492952 C 50.547819 43.492952 50.407666 44.340109 50.184534 44.976066 L 49.781458 44.29342 C 49.497997 43.812836 42.399479 31.955155 42.399479 31.955155 z " /></g></svg>
