<?xml version="1.0" encoding="UTF-8"?>
<svg width="42.5mm" height="41.3mm" viewBox="0 0 42.5 41.3" xmlns="http://www.w3.org/2000/svg">
  <path
     fill="#000000"
     fill-rule="evenodd"
     d="M 33.87 0.03 C 29.14 -0.08 26.74 3.92 26.74 3.92 L 21.22 12.41 L 16.05 4.2 C 16.05 4.2 15.28 3.09 14.8 2.62 C 14.24 2.08 12.93 1.23 12.93 1.23 C 12.93 1.23 8.79 -1.32 4.45 1.08 C 0.11 3.47 0 7.6 0 7.6 L 0 20.2 L 8.07 20.2 C 8.07 20.2 8.08 10.38 8.07 9.08 C 8.06 8.43 8.23 7.74 8.41 7.21 L 8.86 7.95 C 9.43 8.87 16.26 20.13 16.26 20.13 L 26.34 20.21 C 26.34 20.21 33.43 8.26 33.72 7.77 L 34.13 7.1 C 34.35 7.74 34.49 8.58 34.49 8.58 L 34.49 20.13 L 42.5 20.13 C 42.5 20.13 42.56 10.97 42.5 7.44 C 42.45 3.9 38.6 0.14 33.87 0.03 z M 26.34 21.26 L 16.26 21.33 C 16.26 21.33 9.43 32.5 8.86 33.42 L 8.41 34.16 C 8.23 33.63 8.06 32.94 8.07 32.3 C 8.08 31.01 8.07 21.27 8.07 21.27 L 0 21.27 L 0 33.77 C 0 33.77 0.11 37.86 4.45 40.24 C 8.79 42.61 12.93 40.09 12.93 40.09 C 12.93 40.09 14.24 39.24 14.8 38.7 C 15.28 38.24 16.05 37.14 16.05 37.14 L 21.22 28.99 L 26.74 37.42 C 26.74 37.42 29.14 41.38 33.87 41.28 C 38.6 41.17 42.45 37.43 42.5 33.93 C 42.56 30.42 42.5 21.33 42.5 21.33 L 34.49 21.33 L 34.49 32.79 C 34.49 32.79 34.35 33.64 34.12 34.28 L 33.72 33.59 C 33.44 33.11 26.34 21.26 26.34 21.26 z" />
</svg>
